<?xml version="1.0" encoding="UTF-8"?>
<svg id="uuid-e61b74e8-2e15-45bc-9ffc-86cd6518148c" xmlns="http://www.w3.org/2000/svg"
    viewBox="0 0 200 200">
    <path
        d="m112.95,25.8h0c11-12.18,31.2-3.81,30.37,12.58h0c-.53,10.32,7.99,18.84,18.31,18.31h0c16.39-.84,24.76,19.37,12.58,30.37h0c-7.67,6.93-7.67,18.97,0,25.89h0c12.18,11,3.81,31.2-12.58,30.37h0c-10.32-.53-18.84,7.99-18.31,18.31h0c.84,16.39-19.37,24.76-30.37,12.58h0c-6.93-7.67-18.97-7.67-25.89,0h0c-11,12.18-31.2,3.81-30.37-12.58h0c.53-10.32-7.99-18.84-18.31-18.31h0c-16.39.84-24.76-19.37-12.58-30.37h0c7.67-6.93,7.67-18.97,0-25.89h0c-12.18-11-3.81-31.2,12.58-30.37h0c10.32.53,18.84-7.99,18.31-18.31h0c-.84-16.39,19.37-24.76,30.37-12.58h0c6.93,7.67,18.97,7.67,25.89,0Z"
        fill="none" stroke="#231f20" stroke-miterlimit="10" />
    <path
        d="m92.89,43.21h0c2.43-2.69,6.9-.84,6.71,2.78h0c-.12,2.28,1.77,4.16,4.05,4.05h0c3.62-.19,5.47,4.28,2.78,6.71h0c-1.7,1.53-1.7,4.19,0,5.72h0c2.69,2.43.84,6.9-2.78,6.71h0c-2.28-.12-4.16,1.77-4.05,4.05h0c.19,3.62-4.28,5.47-6.71,2.78h0c-1.53-1.7-4.19-1.7-5.72,0h0c-2.43,2.69-6.9.84-6.71-2.78h0c.12-2.28-1.77-4.16-4.05-4.05h0c-3.62.19-5.47-4.28-2.78-6.71h0c1.7-1.53,1.7-4.19,0-5.72h0c-2.69-2.43-.84-6.9,2.78-6.71h0c2.28.12,4.16-1.77,4.05-4.05h0c-.19-3.62,4.28-5.47,6.71-2.78h0c1.53,1.7,4.19,1.7,5.72,0Z"
        fill="none" stroke="#231f20" stroke-miterlimit="10" />
    <path
        d="m72.44,102.47h0c2.43-2.69,6.9-.84,6.71,2.78h0c-.12,2.28,1.77,4.16,4.05,4.05h0c3.62-.19,5.47,4.28,2.78,6.71h0c-1.7,1.53-1.7,4.19,0,5.72h0c2.69,2.43.84,6.9-2.78,6.71h0c-2.28-.12-4.16,1.77-4.05,4.05h0c.19,3.62-4.28,5.47-6.71,2.78h0c-1.53-1.7-4.19-1.7-5.72,0h0c-2.43,2.69-6.9.84-6.71-2.78h0c.12-2.28-1.77-4.16-4.05-4.05h0c-3.62.19-5.47-4.28-2.78-6.71h0c1.7-1.53,1.7-4.19,0-5.72h0c-2.69-2.43-.84-6.9,2.78-6.71h0c2.28.12,4.16-1.77,4.05-4.05h0c-.19-3.62,4.28-5.47,6.71-2.78h0c1.53,1.7,4.19,1.7,5.72,0Z"
        fill="none" stroke="#231f20" stroke-miterlimit="10" />
    <path
        d="m134.8,87.55h0c2.43-2.69,6.9-.84,6.71,2.78h0c-.12,2.28,1.77,4.16,4.05,4.05h0c3.62-.19,5.47,4.28,2.78,6.71h0c-1.7,1.53-1.7,4.19,0,5.72h0c2.69,2.43.84,6.9-2.78,6.71h0c-2.28-.12-4.16,1.77-4.05,4.05h0c.19,3.62-4.28,5.47-6.71,2.78h0c-1.53-1.7-4.19-1.7-5.72,0h0c-2.43,2.69-6.9.84-6.71-2.78h0c.12-2.28-1.77-4.16-4.05-4.05h0c-3.62.19-5.47-4.28-2.78-6.71h0c1.7-1.53,1.7-4.19,0-5.72h0c-2.69-2.43-.84-6.9,2.78-6.71h0c2.28.12,4.16-1.77,4.05-4.05h0c-.19-3.62,4.28-5.47,6.71-2.78h0c1.53,1.7,4.19,1.7,5.72,0Z"
        fill="none" stroke="#231f20" stroke-miterlimit="10" />
</svg>